PathFileType	4	(X/Y/Z)	C:/Users/opensim2020/Desktop/walking_exp_matlab/subject06_walking18_straight_04.trc	
DataRate	CameraRate	NumFrames	NumMarkers	Units	OrigDataRate	OrigDataStartFrame	OrigNumFrames	
100.00	100.00	6	47	mm	100.00	4827	409	
Frame#	Time	LFHD			RFHD			LBHD			RBHD			C7			T10			CLAV			STRN			RBAK			LSHO			LUPA			LELB			LFRM			LWRA			LWRB			LFIN			RSHO			RUPA			RELB			RFRM			RWRA			RWRB			RFIN			LASI			RASI			LPSI			RPSI			LTHI			LKNE			LTIB			LANK			LHEE			LTOE			RTHI			RKNE			RTIB			RANK			RHEE			RTOE			*39			*40			*41			*42			*43			*44			*45			*46			
		X1	Y1	Z1	X2	Y2	Z2	X3	Y3	Z3	X4	Y4	Z4	X5	Y5	Z5	X6	Y6	Z6	X7	Y7	Z7	X8	Y8	Z8	X9	Y9	Z9	X10	Y10	Z10	X11	Y11	Z11	X12	Y12	Z12	X13	Y13	Z13	X14	Y14	Z14	X15	Y15	Z15	X16	Y16	Z16	X17	Y17	Z17	X18	Y18	Z18	X19	Y19	Z19	X20	Y20	Z20	X21	Y21	Z21	X22	Y22	Z22	X23	Y23	Z23	X24	Y24	Z24	X25	Y25	Z25	X26	Y26	Z26	X27	Y27	Z27	X28	Y28	Z28	X29	Y29	Z29	X30	Y30	Z30	X31	Y31	Z31	X32	Y32	Z32	X33	Y33	Z33	X34	Y34	Z34	X35	Y35	Z35	X36	Y36	Z36	X37	Y37	Z37	X38	Y38	Z38	X39	Y39	Z39	X40	Y40	Z40	X41	Y41	Z41	X42	Y42	Z42	X43	Y43	Z43	X44	Y44	Z44	X45	Y45	Z45	X46	Y46	Z46	X47	Y47	Z47	

307	3.060	-965.31500	-624.59869	1672.40674	-1096.68201	-629.23761	1659.76367	-968.41772	-492.49994	1615.29980	-1097.59302	-498.72293	1607.19287	-1023.36304	-497.55692	1455.75049	-1033.27100	-473.73172	1126.78516	-1018.88171	-608.40778	1382.25134	-1008.64563	-653.19653	1206.49109	-1106.39490	-434.93634	1282.08044	-859.52399	-547.72778	1411.44006	-784.53796	-553.35651	1209.27454	-769.34845	-559.01367	1097.23010	-745.23895	-611.82220	956.71857	-785.88324	-695.77679	858.84393	-749.14404	-638.21857	840.45392	-745.66290	-697.51373	772.35217	-1182.04883	-571.53650	1412.63586	-1270.88049	-534.63647	1214.55652	-1277.63342	-542.50006	1091.61157	-1286.74756	-567.24597	973.27783	-1242.29163	-636.84320	842.87909	-1285.86682	-586.09412	837.10706	-1279.32825	-629.49585	764.47241	-909.00757	-635.79761	963.05341	-1129.17358	-659.44421	971.91211	-952.13824	-482.50333	995.48566	-1119.32300	-505.58450	1003.41119	-855.83704	-547.76837	648.81519	-870.35785	-539.48676	484.55371	-873.30017	-364.86047	299.11389	-908.53906	-258.88812	160.96027	-956.30347	-219.26620	169.13589	-903.29376	-355.89075	54.33300	-1186.54993	-610.19305	639.13965	-1160.18018	-615.36078	514.11670	-1153.60938	-578.77252	249.99312	-1097.76440	-574.50708	65.78214	-1054.62976	-535.25305	41.51995	-1082.58179	-731.85767	31.15994	-1028.09961	-525.66626	1707.36438																					 
308	3.070	-966.01575	-630.62170	1672.54675	-1097.36707	-635.72559	1660.06226	-969.71118	-498.46780	1615.46533	-1098.81018	-505.21524	1607.47437	-1025.10034	-503.35709	1456.14734	-1034.53540	-479.45645	1127.01746	-1019.84302	-614.31787	1382.37915	-1009.54608	-658.74500	1206.57593	-1107.74744	-440.90286	1282.43787	-860.66620	-553.25970	1411.66980	-785.69080	-557.52679	1209.53748	-770.61554	-561.80902	1097.52161	-745.16962	-612.62622	956.19568	-785.51770	-695.34290	856.90588	-749.35199	-637.04443	839.49493	-745.17078	-695.00696	770.45282	-1183.15027	-577.77545	1412.75049	-1271.89673	-542.11627	1214.54248	-1278.89478	-550.25616	1091.71887	-1287.94434	-575.29785	973.43927	-1242.99817	-644.73090	843.16980	-1287.20300	-594.12494	837.29089	-1280.40710	-637.69495	764.76154	-910.08789	-642.15588	963.67297	-1130.51611	-664.58722	972.05646	-952.98029	-488.27939	995.77582	-1120.18018	-510.84412	1003.54321	-856.59698	-556.48230	648.93842	-871.18127	-549.88391	484.72195	-874.12457	-375.60898	299.34702	-909.01978	-270.28934	160.75974	-957.33990	-230.99725	167.85063	-900.54291	-368.07132	55.47628	-1187.20959	-613.50256	639.01648	-1161.15674	-617.86176	513.89545	-1154.09436	-579.61780	249.94391	-1097.88782	-574.50610	65.87543	-1054.68701	-535.18304	41.58497	-1082.70276	-731.83307	31.07884	-1029.14868	-531.90619	1707.65051																					 
309	3.080	-966.77856	-636.57318	1672.67212	-1098.06470	-642.23981	1660.30017	-971.05627	-504.36133	1615.73083	-1100.09766	-511.60220	1608.00183	-1026.52856	-509.30753	1455.94812	-1035.45337	-484.92728	1127.48096	-1020.76318	-620.10132	1382.57629	-1010.46796	-664.32428	1206.74658	-1109.07983	-446.65616	1282.82043	-861.67816	-558.79614	1412.10754	-786.80304	-561.54358	1209.92188	-771.60675	-564.78918	1098.02258	-746.23792	-613.36566	955.80945	-785.38702	-694.60638	854.98767	-749.57941	-635.79004	838.68048	-744.74481	-692.71222	768.77527	-1184.01392	-584.00726	1412.88794	-1273.01611	-548.98083	1214.57288	-1280.05249	-557.77673	1091.85022	-1289.11816	-583.02954	973.68524	-1243.68213	-652.29846	843.54498	-1288.40320	-602.33984	837.64886	-1281.59509	-645.81555	765.15936	-911.38495	-648.10858	964.17908	-1131.87671	-669.64862	972.17902	-953.74762	-494.09296	996.08179	-1121.05994	-515.96930	1003.69348	-857.45038	-565.01831	649.16162	-872.06256	-560.17731	485.01389	-874.98566	-386.80157	299.19501	-909.46576	-282.42407	159.87567	-958.35736	-243.42307	165.86298	-898.26874	-381.54236	56.32658	-1188.13086	-616.76239	638.94305	-1162.09851	-620.33746	513.66351	-1154.50903	-580.44556	249.94995	-1098.01245	-574.42065	65.79365	-1054.79980	-535.12671	41.66752	-1082.78662	-731.80157	31.06208	-1030.23669	-538.21954	1707.98376	-1245.37683	-654.32098	841.29999																		 
310	3.090	-967.44513	-642.64172	1672.77576	-1098.81152	-648.65259	1660.49475	-972.42963	-510.14996	1616.03870	-1101.34314	-518.00458	1608.36597	-1027.18994	-515.18964	1456.53760	-1036.38403	-490.43350	1127.85352	-1021.63239	-625.82379	1382.79443	-1011.31982	-669.86017	1206.96204	-1110.32056	-452.57913	1283.18359	-862.65393	-564.15198	1412.51526	-787.88245	-565.44128	1210.38379	-772.80292	-567.60504	1098.47009	-746.90283	-613.76459	955.56897	-785.18079	-693.94684	853.49500	-749.96710	-634.44946	838.17896	-744.15991	-690.52496	767.54572	-1184.89429	-590.06964	1413.18542	-1274.15137	-556.22583	1214.86304	-1281.08875	-565.23096	1092.15723	-1290.16016	-590.82074	974.00433	-1244.23425	-659.92535	843.99335	-1289.63110	-610.14832	837.96143	-1282.68262	-653.71924	765.58813	-912.67145	-654.05115	964.69220	-1133.23279	-674.68817	972.27936	-954.40112	-499.78500	996.43591	-1121.87769	-521.14972	1003.83899	-858.26373	-573.37744	649.42426	-872.99640	-570.34320	485.37244	-875.69562	-398.49133	298.45227	-909.86029	-295.30319	158.24997	-959.17542	-256.56625	163.08165	-896.24182	-395.45660	56.36804	-1188.77258	-620.16248	638.82703	-1162.91663	-622.78967	513.47430	-1154.83313	-581.29895	250.00002	-1098.10291	-574.36041	65.86801	-1054.65564	-534.63971	42.02243	-1082.90747	-731.78662	31.00480	-1031.29639	-544.51233	1708.32129																					 
311	3.100	-968.21613	-648.55756	1672.97998	-1099.58069	-655.08002	1660.60254	-973.53723	-516.06458	1616.49927	-1102.50305	-524.31403	1608.79578	-1028.39966	-520.95624	1456.68481	-1037.38916	-496.11694	1127.77942	-1022.45453	-631.45386	1383.02673	-1012.18793	-675.38684	1207.20422	-1111.42627	-458.26819	1283.64294	-863.46411	-569.57043	1413.18896	-788.88470	-569.21039	1210.87195	-773.95367	-570.26575	1098.93787	-747.36407	-614.10498	955.64606	-785.10052	-693.12622	852.12646	-750.34747	-633.14282	837.73389	-744.20563	-688.04291	766.18048	-1185.71680	-595.94409	1413.39148	-1274.98486	-562.90485	1214.98071	-1282.09485	-572.38910	1092.42542	-1291.25659	-598.26013	974.40656	-1245.37805	-667.82947	844.48181	-1290.85046	-618.05542	838.53558	-1284.11853	-661.88251	766.24939	-913.96411	-659.97864	965.21594	-1134.52136	-679.70709	972.33398	-955.06396	-505.44949	996.83691	-1122.55762	-526.25598	1003.94238	-859.28949	-581.87378	649.50360	-873.90631	-580.26636	485.78949	-876.35480	-410.55273	297.33820	-910.21741	-308.92578	155.96262	-959.92786	-270.44714	159.64333	-894.32819	-410.80957	56.33127	-1189.33350	-623.59949	638.71796	-1163.65063	-625.31000	513.24597	-1155.06763	-582.20636	250.01596	-1097.87415	-575.05383	65.52060	-1054.82703	-535.10577	41.79382	-1082.98987	-731.75891	30.95081	-1032.43579	-550.80475	1708.71265																					 
312	3.110	-968.87982	-654.51453	1673.14490	-1100.24060	-661.36224	1660.82727	-974.72479	-521.86664	1617.01660	-1103.61365	-530.55493	1609.33020	-1029.90735	-526.54938	1456.76160	-1038.42847	-501.44809	1128.25696	-1023.22290	-637.01318	1383.28894	-1013.05652	-680.83411	1207.43652	-1112.56042	-463.82993	1283.94910	-864.26862	-574.83234	1413.88562	-789.86072	-572.83447	1211.36011	-775.05212	-572.74310	1099.48584	-748.52008	-614.51764	955.51770	-784.89063	-692.25372	850.79449	-750.82471	-631.84967	837.41034	-744.66766	-685.18610	764.58020	-1186.54272	-601.72754	1413.75464	-1276.12219	-569.69232	1215.37134	-1283.04834	-579.34558	1092.78186	-1292.26880	-605.55603	974.81006	-1246.16138	-674.95844	844.96948	-1291.94177	-625.77490	838.95703	-1285.30103	-669.76245	766.90094	-915.25122	-665.81140	965.68787	-1135.88708	-684.55066	972.35376	-955.68762	-511.26288	997.09711	-1123.30896	-531.23242	1003.98639	-859.77155	-589.80200	649.79407	-874.78406	-590.01837	486.28326	-876.89111	-422.91516	295.82019	-910.56183	-323.12415	153.03392	-960.43884	-284.92603	155.56526	-892.87567	-426.85803	55.74868	-1189.71606	-627.14777	638.55212	-1164.16858	-627.90936	513.07849	-1155.27087	-583.06842	250.07739	-1098.08643	-574.64600	65.86559	-1054.75232	-534.49231	42.27475	-1083.06494	-731.74359	30.92640	-1033.40381	-557.03613	1709.07520																					 
